<svg xmlns="http://www.w3.org/2000/svg" width="93" height="93" viewBox="0 0 93 93">
  <g id="Group_673" data-name="Group 673" transform="translate(-1052 -2712)">
    <g id="Component_104_1" data-name="Component 104 – 1" transform="translate(1052 2712)">
      <path id="Path_1552" data-name="Path 1552" d="M0,0H93V93H0Z" fill="#161a37"/>
      <path id="Icon_awesome-chevron-left" data-name="Icon awesome-chevron-left" d="M30.7,26.025,9.03,3.464a2.6,2.6,0,0,0-3.785,0L2.717,6.1a2.868,2.868,0,0,0,0,3.936L19.89,28,2.714,45.961a2.867,2.867,0,0,0,0,3.936l2.528,2.632a2.6,2.6,0,0,0,3.785,0L30.7,29.966A2.868,2.868,0,0,0,30.7,26.025Z" transform="translate(30.164 17.367)" fill="#fff"/>
    </g>
  </g>
</svg>
