<svg id="Component_18_8" data-name="Component 18 – 8" xmlns="http://www.w3.org/2000/svg" width="93.857" height="77.888" viewBox="0 0 93.857 77.888">
  <path id="Rectangle_110" data-name="Rectangle 110" d="M0,0H54.061A39.693,39.693,0,0,1,93.754,39.693v0a38.2,38.2,0,0,1-38.2,38.2H46.433A46.433,46.433,0,0,1,0,31.455V0A0,0,0,0,1,0,0Z" transform="translate(0.103 0)" fill="#161a37"/>
  <path id="Icon_awesome-search" data-name="Icon awesome-search" d="M38.436,33.694l-7.588-7.588a1.825,1.825,0,0,0-1.294-.533H28.313a15.824,15.824,0,1,0-2.74,2.74v1.241a1.825,1.825,0,0,0,.533,1.294l7.588,7.588a1.819,1.819,0,0,0,2.58,0l2.154-2.154A1.835,1.835,0,0,0,38.436,33.694Zm-22.6-8.121a9.742,9.742,0,1,1,9.742-9.742A9.737,9.737,0,0,1,15.831,25.573Z" transform="translate(28.375 14.19)" fill="#fff"/>
</svg>
